  0
SECTION
  2
HEADER
  9
$ACADVER
  1
AC1009
  9
$INSBASE
 10
0.0
 20
0.0
 30
0.0
  9
$EXTMIN
 10
17.665192362462669
 20
32.261353065564037
 30
-0.0000000000000053
  9
$EXTMAX
 10
176.28030450604891
 20
144.28527873275479
 30
0.0000000000000099
  9
$LIMMIN
 10
0.0
 20
0.0
  9
$LIMMAX
 10
297.0
 20
210.0
  9
$ORTHOMODE
 70
     0
  9
$REGENMODE
 70
     1
  9
$FILLMODE
 70
     1
  9
$QTEXTMODE
 70
     0
  9
$MIRRTEXT
 70
     0
  9
$DRAGMODE
 70
     2
  9
$LTSCALE
 40
1.0
  9
$OSMODE
 70
    39
  9
$ATTMODE
 70
     1
  9
$TEXTSIZE
 40
6.4000000000000012
  9
$TRACEWID
 40
0.05
  9
$TEXTSTYLE
  7
STANDARD
  9
$CLAYER
  8
0
  9
$CELTYPE
  6
CONTINUOUS
  9
$CECOLOR
 62
     7
  9
$DIMSCALE
 40
1.0
  9
$DIMASZ
 40
3.0
  9
$DIMEXO
 40
1.0
  9
$DIMDLI
 40
0.0
  9
$DIMRND
 40
0.0
  9
$DIMDLE
 40
0.0
  9
$DIMEXE
 40
1.0
  9
$DIMTP
 40
0.0
  9
$DIMTM
 40
0.0
  9
$DIMTXT
 40
3.2000000000000002
  9
$DIMCEN
 40
0.0
  9
$DIMTSZ
 40
0.0
  9
$DIMTOL
 70
     0
  9
$DIMLIM
 70
     0
  9
$DIMTIH
 70
     0
  9
$DIMTOH
 70
     0
  9
$DIMSE1
 70
     0
  9
$DIMSE2
 70
     0
  9
$DIMTAD
 70
     1
  9
$DIMZIN
 70
     8
  9
$DIMBLK
  1

  9
$DIMASO
 70
     1
  9
$DIMSHO
 70
     1
  9
$DIMPOST
  1

  9
$DIMAPOST
  1

  9
$DIMALT
 70
     0
  9
$DIMALTD
 70
     2
  9
$DIMALTF
 40
0.04
  9
$DIMLFAC
 40
1.0
  9
$DIMTOFL
 70
     1
  9
$DIMTVP
 40
1.0
  9
$DIMTIX
 70
     1
  9
$DIMSOXD
 70
     0
  9
$DIMSAH
 70
     0
  9
$DIMBLK1
  1

  9
$DIMBLK2
  1

  9
$DIMSTYLE
  2
MISUMI
  9
$DIMCLRD
 70
     0
  9
$DIMCLRE
 70
     0
  9
$DIMCLRT
 70
     0
  9
$DIMTFAC
 40
0.6
  9
$DIMGAP
 40
1.0
  9
$LUNITS
 70
     2
  9
$LUPREC
 70
     4
  9
$SKETCHINC
 40
0.1
  9
$FILLETRAD
 40
0.0
  9
$AUNITS
 70
     0
  9
$AUPREC
 70
     0
  9
$MENU
  1
acad
  9
$ELEVATION
 40
0.0
  9
$PELEVATION
 40
0.0
  9
$THICKNESS
 40
0.0
  9
$LIMCHECK
 70
     0
  9
$BLIPMODE
 70
     0
  9
$CHAMFERA
 40
0.5
  9
$CHAMFERB
 40
0.5
  9
$SKPOLY
 70
     0
  9
$TDCREATE
 40
2451464.6006649309
  9
$TDUPDATE
 40
2454505.4720346411
  9
$TDINDWG
 40
0.3856959606
  9
$TDUSRTIMER
 40
0.3856914005
  9
$USRTIMER
 70
     1
  9
$ANGBASE
 50
0.0
  9
$ANGDIR
 70
     0
  9
$PDMODE
 70
     0
  9
$PDSIZE
 40
0.0
  9
$PLINEWID
 40
0.0
  9
$COORDS
 70
     1
  9
$SPLFRAME
 70
     0
  9
$SPLINETYPE
 70
     6
  9
$SPLINESEGS
 70
     8
  9
$ATTDIA
 70
     0
  9
$ATTREQ
 70
     1
  9
$HANDLING
 70
     1
  9
$HANDSEED
  5
3DF9
  9
$SURFTAB1
 70
     6
  9
$SURFTAB2
 70
     6
  9
$SURFTYPE
 70
     6
  9
$SURFU
 70
     6
  9
$SURFV
 70
     6
  9
$UCSNAME
  2

  9
$UCSORG
 10
0.0
 20
0.0
 30
0.0
  9
$UCSXDIR
 10
1.0
 20
0.0
 30
0.0
  9
$UCSYDIR
 10
0.0
 20
1.0
 30
0.0
  9
$PUCSNAME
  2

  9
$PUCSORG
 10
0.0
 20
0.0
 30
0.0
  9
$PUCSXDIR
 10
1.0
 20
0.0
 30
0.0
  9
$PUCSYDIR
 10
0.0
 20
1.0
 30
0.0
  9
$USERI1
 70
     0
  9
$USERI2
 70
     0
  9
$USERI3
 70
     0
  9
$USERI4
 70
     0
  9
$USERI5
 70
     0
  9
$USERR1
 40
0.0
  9
$USERR2
 40
0.0
  9
$USERR3
 40
0.0
  9
$USERR4
 40
0.0
  9
$USERR5
 40
0.0
  9
$WORLDVIEW
 70
     1
  9
$SHADEDGE
 70
     3
  9
$SHADEDIF
 70
    70
  9
$TILEMODE
 70
     1
  9
$MAXACTVP
 70
    16
  9
$PLIMCHECK
 70
     0
  9
$PEXTMIN
 10
1.0000000000000000E+020
 20
1.0000000000000000E+020
 30
1.0000000000000000E+020
  9
$PEXTMAX
 10
-1.0000000000000000E+020
 20
-1.0000000000000000E+020
 30
-1.0000000000000000E+020
  9
$PLIMMIN
 10
0.0
 20
0.0
  9
$PLIMMAX
 10
12.0
 20
9.0
  9
$UNITMODE
 70
     0
  9
$VISRETAIN
 70
     0
  9
$PLINEGEN
 70
     0
  9
$PSLTSCALE
 70
     1
  0
ENDSEC
  0
SECTION
  2
TABLES
  0
TABLE
  2
VPORT
 70
     1
  0
VPORT
  2
*ACTIVE
 70
     0
 10
0.0
 20
0.0
 11
1.0
 21
1.0
 12
148.49999999999989
 22
105.0
 13
0.0
 23
0.0
 14
10.0
 24
10.0
 15
10.0
 25
10.0
 16
0.0
 26
0.0
 36
1.0
 17
0.0
 27
0.0
 37
0.0
 40
247.37935113760611
 41
1.208387942332896
 42
50.0
 43
0.0
 44
0.0
 50
0.0
 51
0.0
 71
     0
 72
   100
 73
     1
 74
     0
 75
     0
 76
     0
 77
     0
 78
     0
  0
ENDTAB
  0
TABLE
  2
LTYPE
 70
     4
  0
LTYPE
  2
CONTINUOUS
 70
     0
  3
Solid line
 72
    65
 73
     0
 40
0.0
  0
LTYPE
  2
CENTER
 70
     0
  3
Center ____ _ ____ _ ____ _ ____ _ ____ _ ____
 72
    65
 73
     4
 40
2.0
 49
1.25
 49
-0.25
 49
0.25
 49
-0.25
  0
LTYPE
  2
DASHED
 70
     0
  3
Dashed __ __ __ __ __ __ __ __ __ __ __ __ __ _
 72
    65
 73
     2
 40
0.75
 49
0.5
 49
-0.25
  0
LTYPE
  2
PHANTOM
 70
     0
  3
Phantom ______  __  __  ______  __  __  ______
 72
    65
 73
     6
 40
2.5
 49
1.25
 49
-0.25
 49
0.25
 49
-0.25
 49
0.25
 49
-0.25
  0
ENDTAB
  0
TABLE
  2
LAYER
 70
     4
  0
LAYER
  2
0
 70
     0
 62
     7
  6
CONTINUOUS
  0
LAYER
  2
CENTER
 70
     0
 62
     1
  6
CENTER
  0
ENDTAB
  0
TABLE
  2
STYLE
 70
     2
  0
STYLE
  2
STANDARD
 70
     0
 40
0.0
 41
1.0
 50
0.0
 71
     0
 42
6.4000000000000012
  3
txt
  4

  0
STYLE
  2
MISUMI
 70
     0
 40
0.0
 41
1.0
 50
0.0
 71
     0
 42
2.5
  3
txt
  4

  0
ENDTAB
  0
TABLE
  2
VIEW
 70
     0
  0
ENDTAB
  0
TABLE
  2
UCS
 70
     0
  0
ENDTAB
  0
TABLE
  2
APPID
 70
     4
  0
APPID
  2
ACAD
 70
     0
  0
APPID
  2
ACAD_MLEADERVER
 70
     0
  0
APPID
  2
ACAD_PSEXT
 70
     0
  0
APPID
  2
ACAD_EXEMPT_FROM_CAD_STANDARDS
 70
     0
  0
ENDTAB
  0
TABLE
  2
DIMSTYLE
 70
     2
  0
DIMSTYLE
  2
MISUMI
 70
     0
  3

  4

  5

  6

  7

 40
1.0
 41
3.0
 42
1.0
 43
0.0
 44
1.0
 45
0.0
 46
0.0
 47
0.0
 48
0.0
140
3.2000000000000002
141
0.0
142
0.0
143
0.04
144
1.0
145
1.0
146
0.6
147
1.0
 71
     0
 72
     0
 73
     0
 74
     0
 75
     0
 76
     0
 77
     1
 78
     8
170
     0
171
     2
172
     1
173
     0
174
     1
175
     0
176
     0
177
     0
178
     0
  0
ENDTAB
  0
ENDSEC
  0
SECTION
  2
BLOCKS
  0
BLOCK
  8
0
  2
$MODEL_SPACE
 70
     0
 10
0.0
 20
0.0
 30
0.0
  3
$MODEL_SPACE
  1

  0
ENDBLK
  5
13DE
  8
0
  0
BLOCK
 67
     1
  8
0
  2
$PAPER_SPACE
 70
     0
 10
0.0
 20
0.0
 30
0.0
  3
$PAPER_SPACE
  1

  0
ENDBLK
  5
13DA
 67
     1
  8
0
  0
BLOCK
  8
0
 62
     7
  2
*X22
 70
     1
 10
0.0
 20
0.0
 30
0.0
  3
*X22
  1

  0
LINE
  5
3D8F
  8
0
  6
CONTINUOUS
 62
     0
 10
54.54411404667546
 20
83.795482084174594
 30
0.0
 11
55.029464634147693
 21
84.280832671646806
 31
0.0
  0
LINE
  5
3D90
  8
0
  6
CONTINUOUS
 62
     0
 10
54.013783960785553
 20
83.795482084174594
 30
0.0
 11
55.029464634147722
 21
84.811162757536749
 31
0.0
  0
LINE
  5
3D91
  8
0
  6
CONTINUOUS
 62
     0
 10
53.829464634147683
 20
84.141492843426605
 30
0.0
 11
55.029464634147693
 21
85.341492843426636
 31
0.0
  0
LINE
  5
3D92
  8
0
  6
CONTINUOUS
 62
     0
 10
53.829464634147683
 20
84.671822929316534
 30
0.0
 11
55.029464634147701
 21
85.871822929316565
 31
0.0
  0
LINE
  5
3D93
  8
0
  6
CONTINUOUS
 62
     0
 10
53.829464634147683
 20
85.202153015206449
 30
0.0
 11
55.029464634147701
 21
86.402153015206466
 31
0.0
  0
LINE
  5
3D94
  8
0
  6
CONTINUOUS
 62
     0
 10
53.829464634147698
 20
85.732483101096378
 30
0.0
 11
54.892463617225943
 21
86.795482084174608
 31
0.0
  0
LINE
  5
3D95
  8
0
  6
CONTINUOUS
 62
     0
 10
53.829464634147712
 20
86.262813186986278
 30
0.0
 11
54.362133531335999
 21
86.795482084174566
 31
0.0
  0
LINE
  5
3D96
  8
0
  6
CONTINUOUS
 62
     0
 10
53.829464634147712
 20
86.793143272876179
 30
0.0
 11
53.831803445446077
 21
86.795482084174566
 31
0.0
  0
LINE
  5
3D97
  8
0
  6
CONTINUOUS
 62
     0
 10
54.879260181629512
 20
107.9954820841746
 30
0.0
 11
55.029464634147693
 21
108.14568653669281
 31
0.0
  0
LINE
  5
3D98
  8
0
  6
CONTINUOUS
 62
     0
 10
54.348930095739597
 20
107.9954820841746
 30
0.0
 11
55.029464634147672
 21
108.67601662258269
 31
0.0
  0
LINE
  5
3D99
  8
0
  6
CONTINUOUS
 62
     0
 10
53.829464634147683
 20
108.00634670847261
 30
0.0
 11
55.029464634147672
 21
109.20634670847259
 31
0.0
  0
LINE
  5
3D9A
  8
0
  6
CONTINUOUS
 62
     0
 10
53.829464634147698
 20
108.53667679436251
 30
0.0
 11
55.029464634147651
 21
109.7366767943625
 31
0.0
  0
LINE
  5
3D9B
  8
0
  6
CONTINUOUS
 62
     0
 10
53.829464634147683
 20
109.06700688025241
 30
0.0
 11
55.029464634147672
 21
110.2670068802524
 31
0.0
  0
LINE
  5
3D9C
  8
0
  6
CONTINUOUS
 62
     0
 10
53.829464634147669
 20
109.59733696614229
 30
0.0
 11
55.029464634147651
 21
110.7973369661423
 31
0.0
  0
LINE
  5
3D9D
  8
0
  6
CONTINUOUS
 62
     0
 10
53.829464634147683
 20
110.12766705203219
 30
0.0
 11
54.697279666290051
 21
110.9954820841746
 31
0.0
  0
LINE
  5
3D9E
  8
0
  6
CONTINUOUS
 62
     0
 10
53.829464634147669
 20
110.6579971379221
 30
0.0
 11
54.16694958040015
 21
110.9954820841746
 31
0.0
  0
ENDBLK
  5
3DA0
  8
0
 62
     7
  0
BLOCK
  8
0
 62
     7
  2
*U23
 70
     1
 10
0.0
 20
0.0
 30
0.0
  3
*U23
  1

  0
TEXT
  5
3DA2
  8
0
  6
CONTINUOUS
 62
     0
 10
27.52251036334938
 20
95.199124790546762
 30
0.0
 40
3.2000000000000002
  1
26
 50
90.0
  7
MISUMI
  0
ENDBLK
  5
3DA4
  8
0
 62
     7
  0
BLOCK
  8
0
 62
     7
  2
*U24
 70
     1
 10
0.0
 20
0.0
 30
0.0
  3
*U24
  1

  0
TEXT
  5
3DA6
  8
0
  6
CONTINUOUS
 62
     0
 10
21.2467492382534
 20
95.166637480902111
 30
0.0
 40
3.2000000000000002
  1
34
 50
90.0
  7
MISUMI
  0
ENDBLK
  5
3DA8
  8
0
 62
     7
  0
BLOCK
  8
0
 62
     7
  2
*U25
 70
     1
 10
0.0
 20
0.0
 30
0.0
  3
*U25
  1

  0
TEXT
  5
3DAA
  8
0
  6
CONTINUOUS
 62
     0
 10
89.489874267889789
 20
88.945317683947835
 30
0.0
 40
3.2000000000000002
  1
P.C.D 42
 50
90.0
  7
MISUMI
  0
ENDBLK
  5
3DAC
  8
0
 62
     7
  0
BLOCK
  8
0
 62
     7
  2
*U26
 70
     1
 10
0.0
 20
0.0
 30
0.0
  3
*U26
  1

  0
TEXT
  5
3DAE
  8
0
  6
CONTINUOUS
 62
     0
 10
77.988524982905943
 20
95.199124790546804
 30
0.0
 40
3.2000000000000002
  1
26
 50
90.0
  7
MISUMI
  0
ENDBLK
  5
3DB0
  8
0
 62
     7
  0
BLOCK
  8
0
 62
     7
  2
*U27
 70
     1
 10
0.0
 20
0.0
 30
0.0
  3
*U27
  1

  0
TEXT
  5
3DB2
  8
0
  6
CONTINUOUS
 62
     0
 10
83.262258803647356
 20
93.253350104479168
 30
0.0
 40
3.2000000000000002
  1
27.2
 50
90.0
  7
MISUMI
  0
ENDBLK
  5
3DB4
  8
0
 62
     7
  0
BLOCK
  8
0
 62
     7
  2
*U28
 70
     1
 10
0.0
 20
0.0
 30
0.0
  3
*U28
  1

  0
TEXT
  5
3DB6
  8
0
  6
CONTINUOUS
 62
     0
 10
73.04388903737609
 20
93.253350104479168
 30
0.0
 40
3.2000000000000002
  1
21.2
 50
90.0
  7
MISUMI
  0
ENDBLK
  5
3DB8
  8
0
 62
     7
  0
BLOCK
  8
0
 62
     7
  2
*U29
 70
     1
 10
0.0
 20
0.0
 30
0.0
  3
*U29
  1

  0
TEXT
  5
3DBA
  8
0
  6
CONTINUOUS
 62
     0
 10
67.976149631152481
 20
93.014353216942737
 30
0.0
 40
3.2000000000000002
  1
13.2
 50
90.0
  7
MISUMI
  0
ENDBLK
  5
3DBC
  8
0
 62
     7
  0
BLOCK
  8
0
 62
     7
  2
*U30
 70
     1
 10
0.0
 20
0.0
 30
0.0
  3
*U30
  1

  0
TEXT
  5
3DBE
  8
0
  6
CONTINUOUS
 62
     0
 10
62.066042446203831
 20
96.238718699176246
 30
0.0
 40
3.2000000000000002
  1
9
 50
90.0
  7
MISUMI
  0
ENDBLK
  5
3DC0
  8
0
 62
     7
  0
BLOCK
  8
0
 62
     7
  2
*U31
 70
     1
 10
0.0
 20
0.0
 30
0.0
  3
*U31
  1

  0
TEXT
  5
3DC2
  8
0
  6
CONTINUOUS
 62
     0
 10
47.169058542777179
 20
55.885883855592589
 30
0.0
 40
3.2000000000000002
  1
15
  7
MISUMI
  0
ENDBLK
  5
3DC4
  8
0
 62
     7
  0
BLOCK
  8
0
 62
     7
  2
*U32
 70
     1
 10
0.0
 20
0.0
 30
0.0
  3
*U32
  1

  0
TEXT
  5
3DC6
  8
0
  6
CONTINUOUS
 62
     0
 10
44.806114380340567
 20
63.839517676949143
 30
0.0
 40
3.2000000000000002
  1
8
  7
MISUMI
  0
ENDBLK
  5
3DC8
  8
0
 62
     7
  0
BLOCK
  8
0
 62
     7
  2
*U33
 70
     1
 10
0.0
 20
0.0
 30
0.0
  3
*U33
  1

  0
TEXT
  5
3DCA
  8
0
  6
CONTINUOUS
 62
     0
 10
52.297992552929479
 20
63.839517676949143
 30
0.0
 40
3.2000000000000002
  1
7
  7
MISUMI
  0
ENDBLK
  5
3DCC
  8
0
 62
     7
  0
BLOCK
  8
0
 62
     7
  2
*U34
 70
     1
 10
0.0
 20
0.0
 30
0.0
  3
*U34
  1

  0
TEXT
  5
3DCE
  8
0
  6
CONTINUOUS
 62
     0
 10
47.06245955800555
 20
128.61098361356181
 30
0.0
 40
3.2000000000000002
  1
1
  7
MISUMI
  0
ENDBLK
  5
3DD0
  8
0
 62
     7
  0
BLOCK
  8
0
 62
     7
  2
*U35
 70
     1
 10
0.0
 20
0.0
 30
0.0
  3
*U35
  1

  0
TEXT
  5
3DD2
  8
0
  6
CONTINUOUS
 62
     0
 10
50.517535700137529
 20
135.2402250429821
 30
0.0
 40
3.2000000000000002
  1
0.5
  7
MISUMI
  0
ENDBLK
  5
3DD4
  8
0
 62
     7
  0
BLOCK
  8
0
 62
     7
  2
*U36
 70
     1
 10
0.0
 20
0.0
 30
0.0
  3
*U36
  1

  0
TEXT
  5
3DD6
  8
0
  6
CONTINUOUS
 62
     0
 10
158.5588415011315
 20
75.140801288088227
 30
0.0
 40
3.2000000000000002
  1
42
 50
44.999934466110552
  7
MISUMI
  0
ENDBLK
  5
3DD8
  8
0
 62
     7
  0
BLOCK
  8
0
 62
     7
  2
*U37
 70
     1
 10
0.0
 20
0.0
 30
0.0
  3
*U37
  1

  0
TEXT
  5
3DDA
  8
0
  6
CONTINUOUS
 62
     0
 10
137.25429843964869
 20
55.885883855592589
 30
0.0
 40
3.2000000000000002
  1
52
  7
MISUMI
  0
ENDBLK
  5
3DDC
  8
0
 62
     7
  0
BLOCK
  8
0
 62
     7
  2
*U38
 70
     1
 10
0.0
 20
0.0
 30
0.0
  3
*U38
  1

  0
TEXT
  5
3DDE
  8
0
  6
CONTINUOUS
 62
     0
 10
147.37038849682449
 20
122.206765416053
 30
0.0
 40
3.2000000000000002
  1
\U+22058
 50
19.676876090441699
  7
MISUMI
  0
ENDBLK
  5
3DE0
  8
0
 62
     7
  0
BLOCK
  8
0
 62
     7
  2
*U39
 70
     1
 10
0.0
 20
0.0
 30
0.0
  3
*U39
  1

  0
TEXT
  5
3DE2
  8
0
  6
CONTINUOUS
 62
     0
 10
142.50358765558281
 20
124.75720657894379
 30
0.0
 40
3.2000000000000002
  1
\U+22054.5
 50
55.869758775481721
  7
MISUMI
  0
ENDBLK
  5
3DE4
  8
0
 62
     7
  0
BLOCK
  8
0
 62
     7
  2
*U40
 70
     1
 10
0.0
 20
0.0
 30
0.0
  3
*U40
  1

  0
TEXT
  5
3DE6
  8
0
  6
CONTINUOUS
 62
     0
 10
54.322358035162907
 20
140.69931684768039
 30
0.0
 40
3.2000000000000002
  1
3
  7
MISUMI
  0
ENDBLK
  5
3DE8
  8
0
 62
     7
  0
BLOCK
  8
0
 62
     7
  2
*U41
 70
     1
 10
0.0
 20
0.0
 30
0.0
  3
*U41
  1

  0
TEXT
  5
3DEA
  8
0
  6
CONTINUOUS
 62
     0
 10
48.806114380340567
 20
140.69931684768039
 30
0.0
 40
3.2000000000000002
  1
8
  7
MISUMI
  0
ENDBLK
  5
3DEC
  8
0
 62
     7
  0
BLOCK
  8
0
 62
     7
  2
*U42
 70
     1
 10
0.0
 20
0.0
 30
0.0
  3
*U42
  1

  0
TEXT
  5
3DEE
  8
0
  6
CONTINUOUS
 62
     0
 10
33.920687799826723
 20
95.061053724556956
 30
0.0
 40
3.2000000000000002
  1
10
 50
90.0
  7
MISUMI
  0
ENDBLK
  5
3DF0
  8
0
 62
     7
  0
BLOCK
  8
0
 62
     7
  2
*U43
 70
     1
 10
0.0
 20
0.0
 30
0.0
  3
*U43
  1

  0
TEXT
  5
3DF2
  8
0
  6
CONTINUOUS
 62
     0
 10
62.596533162066848
 20
128.2998920213326
 30
0.0
 40
3.2000000000000002
  1
1.2
  7
MISUMI
  0
ENDBLK
  5
3DF4
  8
0
 62
     7
  0
BLOCK
  8
0
 62
     7
  2
*U44
 70
     1
 10
0.0
 20
0.0
 30
0.0
  3
*U44
  1

  0
TEXT
  5
3DF6
  8
0
  6
CONTINUOUS
 62
     0
 10
53.797992552929401
 20
134.54156416665251
 30
0.0
 40
3.2000000000000002
  1
4
  7
MISUMI
  0
ENDBLK
  5
3DF8
  8
0
 62
     7
  0
ENDSEC
  0
SECTION
  2
ENTITIES
  0
TEXT
  5
EAD
  8
0
  6
CONTINUOUS
 62
     7
 10
33.694000009793768
 20
37.824776238553483
 30
0.0
 40
3.2000000000000002
  1
BTR 12
  0
TEXT
  5
EAE
  8
0
  6
CONTINUOUS
 62
     7
 10
33.694000009793768
 20
32.263411814714011
 30
0.0
 40
3.2000000000000002
  1
BTR12
  0
LINE
  5
373D
  8
0
  6
CONTINUOUS
 62
     7
 10
42.829464634147683
 20
110.2620689529833
 30
0.0
 11
42.829464634147683
 21
84.262068952983327
 31
0.0
  0
LINE
  5
373E
  8
0
  6
CONTINUOUS
 62
     7
 10
45.829464634147683
 20
110.2620689529833
 30
0.0
 11
45.829464634147683
 21
84.262068952983327
 31
0.0
  0
LINE
  5
373F
  8
0
  6
CONTINUOUS
 62
     7
 10
53.829464634147683
 20
110.2620689529833
 30
0.0
 11
53.829464634147683
 21
84.262068952983327
 31
0.0
  0
LINE
  5
3740
  8
0
  6
CONTINUOUS
 62
     7
 10
56.829464634147691
 20
122.7620689529833
 30
0.0
 11
56.829464634147691
 21
72.028895215365878
 31
0.0
  0
LINE
  5
3741
  8
0
  6
CONTINUOUS
 62
     7
 10
56.129464634147688
 20
84.262068952983327
 30
0.0
 11
56.829464634147691
 21
83.56206895298331
 31
0.0
  0
LINE
  5
3742
  8
0
  6
CONTINUOUS
 62
     7
 10
56.129464634147688
 20
110.2620689529833
 30
0.0
 11
56.829464634147691
 21
110.9620689529833
 31
0.0
  0
LINE
  5
3744
  8
0
  6
CONTINUOUS
 62
     7
 10
53.829464634147683
 20
110.9954820841746
 30
0.0
 11
53.829464634147683
 21
83.795482084174594
 31
0.0
  0
LINE
  5
3745
  8
0
  6
CONTINUOUS
 62
     7
 10
55.029464634147672
 20
110.9954820841746
 30
0.0
 11
55.029464634147701
 21
83.795482084174594
 31
0.0
  0
LINE
  5
3746
  8
0
  6
CONTINUOUS
 62
     7
 10
41.82946463414774
 20
113.7620689529833
 30
0.0
 11
41.829464634147683
 21
80.762068952983313
 31
0.0
  0
CIRCLE
  5
3747
  8
CENTER
  6
CENTER
 62
     1
 10
139.3091207746678
 20
97.262068952983356
 30
0.0
 40
21.0
  0
LINE
  5
3748
  8
0
  6
CONTINUOUS
 62
     7
 10
135.29964105166329
 20
122.9510563279426
 30
0.0
 11
113.6201399511304
 21
101.2715906511324
 31
0.0
  0
LINE
  5
3749
  8
0
  6
CONTINUOUS
 62
     7
 10
143.31865086784441
 20
122.9510484662281
 30
0.0
 11
164.99810945990311
 21
101.27154028095769
 31
0.0
  0
LINE
  5
374A
  8
CENTER
  6
CENTER
 62
     1
 10
139.3091207746678
 20
125.94853516155869
 30
0.0
 11
139.3091207746678
 21
68.412792069855186
 31
0.0
  0
LINE
  5
374D
  8
CENTER
  6
CENTER
 62
     1
 10
58.129464634147688
 20
97.262068952983313
 30
0.0
 11
34.665377380703951
 21
97.262068952983299
 31
0.0
  0
LINE
  5
374E
  8
0
  6
CONTINUOUS
 62
     7
 10
55.029464634147672
 20
83.795482084174594
 30
0.0
 11
53.829464634147683
 21
83.795482084174594
 31
0.0
  0
LINE
  5
374F
  8
0
  6
CONTINUOUS
 62
     7
 10
55.029464634147672
 20
86.795482084174566
 30
0.0
 11
53.829464634147683
 21
86.795482084174566
 31
0.0
  0
LINE
  5
3750
  8
0
  6
CONTINUOUS
 62
     7
 10
55.029464634147701
 20
110.9954820841746
 30
0.0
 11
53.829464634147683
 21
110.9954820841746
 31
0.0
  0
LINE
  5
3751
  8
0
  6
CONTINUOUS
 62
     7
 10
55.029464634147701
 20
107.9954820841746
 30
0.0
 11
53.829464634147683
 21
107.9954820841746
 31
0.0
  0
LINE
  5
3752
  8
0
  6
CONTINUOUS
 62
     7
 10
52.829464634147683
 20
80.262068952983327
 30
0.0
 11
52.829464634147683
 21
72.262068952983313
 31
0.0
  0
LINE
  5
3753
  8
0
  6
CONTINUOUS
 62
     7
 10
49.829464634147683
 20
80.262068952983327
 30
0.0
 11
49.829464634147683
 21
72.028895215365878
 31
0.0
  0
LINE
  5
3754
  8
0
  6
CONTINUOUS
 62
     7
 10
56.829464634147691
 20
72.262068952983313
 30
0.0
 11
52.829464634147683
 21
72.262068952983313
 31
0.0
  0
LINE
  5
3755
  8
0
  6
CONTINUOUS
 62
     7
 10
56.329464634147683
 20
71.528895215365878
 30
0.0
 11
50.329464634147683
 21
71.528895215365878
 31
0.0
  0
LINE
  5
3756
  8
0
  6
CONTINUOUS
 62
     7
 10
56.829464634147691
 20
80.262068952983327
 30
0.0
 11
52.829464634147683
 21
80.262068952983327
 31
0.0
  0
LINE
  5
3757
  8
CENTER
  6
CENTER
 62
     1
 10
58.441284010306077
 20
76.262068952983327
 30
0.0
 11
48.626667542786123
 21
76.262068952983327
 31
0.0
  0
LINE
  5
3758
  8
0
  6
CONTINUOUS
 62
     7
 10
56.129464634147688
 20
84.262068952983299
 30
0.0
 11
55.029464634147672
 21
84.262068952983327
 31
0.0
  0
LINE
  5
3759
  8
0
  6
CONTINUOUS
 62
     7
 10
53.829464634147683
 20
84.262068952983327
 30
0.0
 11
42.829464634147683
 21
84.262068952983327
 31
0.0
  0
LINE
  5
375A
  8
0
  6
CONTINUOUS
 62
     7
 10
52.829464634147683
 20
74.012068952983327
 30
0.0
 11
49.829464634147683
 21
74.012068952983327
 31
0.0
  0
LINE
  5
375B
  8
0
  6
CONTINUOUS
 62
     7
 10
52.829464634147683
 20
78.512068952983313
 30
0.0
 11
49.829464634147683
 21
78.512068952983313
 31
0.0
  0
LINE
  5
375C
  8
0
  6
CONTINUOUS
 62
     7
 10
49.829464634147683
 20
80.262068952983327
 30
0.0
 11
42.329464634147683
 21
80.262068952983327
 31
0.0
  0
LINE
  5
375D
  8
0
  6
CONTINUOUS
 62
     7
 10
42.829464634147683
 20
84.262068952983327
 30
0.0
 11
41.829464634147683
 21
83.262070586956483
 31
0.0
  0
LINE
  5
3761
  8
0
  6
CONTINUOUS
 62
     7
 10
53.829464634147683
 20
92.262068952983313
 30
0.0
 11
45.829464634147683
 21
92.262068952983313
 31
0.0
  0
LINE
  5
376D
  8
0
  6
CONTINUOUS
 62
     7
 10
53.829464634147683
 20
102.2620689529833
 30
0.0
 11
45.829464634147683
 21
102.2620689529833
 31
0.0
  0
CIRCLE
  5
3777
  8
0
  6
CONTINUOUS
 62
     7
 10
139.3091207746678
 20
76.262068952983356
 30
0.0
 40
2.25
  0
CIRCLE
  5
3778
  8
0
  6
CONTINUOUS
 62
     7
 10
139.3091207746678
 20
76.262068952983356
 30
0.0
 40
4.0
  0
ARC
  5
3779
  8
0
  6
CONTINUOUS
 62
     7
 10
139.3091207746678
 20
97.262068952983313
 30
0.0
 40
26.0
 50
261.1288619380494
 51
278.8710257181416
  0
LINE
  5
377A
  8
0
  6
CONTINUOUS
 62
     7
 10
113.6201320894324
 20
93.252597625009003
 30
0.0
 11
135.29959068149111
 21
71.57308943973851
 31
0.0
  0
CIRCLE
  5
377B
  8
0
  6
CONTINUOUS
 62
     7
 10
118.3091207746678
 20
97.262068952983313
 30
0.0
 40
2.25
  0
CIRCLE
  5
377C
  8
0
  6
CONTINUOUS
 62
     7
 10
118.3091207746678
 20
97.262068952983313
 30
0.0
 40
4.0
  0
ARC
  5
377D
  8
0
  6
CONTINUOUS
 62
     7
 10
139.3091207746678
 20
97.262068952983313
 30
0.0
 40
26.0
 50
171.12888066201799
 51
188.87100699417209
  0
LINE
  5
377E
  8
0
  6
CONTINUOUS
 62
     7
 10
164.9981015982051
 20
93.252547254834326
 30
0.0
 11
143.31860049767221
 21
71.573081578024073
 31
0.0
  0
ARC
  5
377F
  8
0
  6
CONTINUOUS
 62
     7
 10
139.3091207746678
 20
97.262068952983313
 30
0.0
 40
26.0
 50
351.12888066201799
 51
8.8710069941721041
  0
CIRCLE
  5
3780
  8
0
  6
CONTINUOUS
 62
     7
 10
160.3091207746678
 20
97.262068952983356
 30
0.0
 40
4.0
  0
CIRCLE
  5
3781
  8
0
  6
CONTINUOUS
 62
     7
 10
160.3091207746678
 20
97.262068952983356
 30
0.0
 40
2.25
  0
LINE
  5
3782
  8
0
  6
CONTINUOUS
 62
     7
 10
52.829464634147683
 20
122.2620689529833
 30
0.0
 11
52.829464634147683
 21
114.2620689529833
 31
0.0
  0
LINE
  5
3783
  8
0
  6
CONTINUOUS
 62
     7
 10
49.829464634147683
 20
122.7620689529833
 30
0.0
 11
49.829464634147683
 21
114.2620689529833
 31
0.0
  0
LINE
  5
3784
  8
0
  6
CONTINUOUS
 62
     7
 10
56.829464634147691
 20
114.2620689529833
 30
0.0
 11
52.829464634147683
 21
114.2620689529833
 31
0.0
  0
LINE
  5
3785
  8
CENTER
  6
CENTER
 62
     1
 10
58.441284010306077
 20
118.2620689529833
 30
0.0
 11
48.626667542786123
 21
118.2620689529833
 31
0.0
  0
LINE
  5
3786
  8
0
  6
CONTINUOUS
 62
     7
 10
56.129464634147659
 20
110.2620689529833
 30
0.0
 11
55.029464634147672
 21
110.2620689529832
 31
0.0
  0
LINE
  5
3787
  8
0
  6
CONTINUOUS
 62
     7
 10
53.829464634147683
 20
110.2620689529833
 30
0.0
 11
42.829464634147683
 21
110.2620689529833
 31
0.0
  0
LINE
  5
3788
  8
0
  6
CONTINUOUS
 62
     7
 10
49.829464634147683
 20
114.2620689529833
 30
0.0
 11
42.32946463414774
 21
114.2620689529833
 31
0.0
  0
LINE
  5
3789
  8
0
  6
CONTINUOUS
 62
     7
 10
42.82946463414774
 20
110.2620689529832
 30
0.0
 11
41.82946463414774
 21
111.26206993336839
 31
0.0
  0
LINE
  5
378A
  8
0
  6
CONTINUOUS
 62
     7
 10
52.829464634147683
 20
116.0120689529833
 30
0.0
 11
49.829464634147683
 21
116.0120689529833
 31
0.0
  0
LINE
  5
378B
  8
0
  6
CONTINUOUS
 62
     7
 10
56.829464634147691
 20
122.2620689529833
 30
0.0
 11
52.829464634147683
 21
122.2620689529833
 31
0.0
  0
LINE
  5
378C
  8
0
  6
CONTINUOUS
 62
     7
 10
56.329464634147683
 20
123.2620689529833
 30
0.0
 11
50.329464634147683
 21
123.2620689529833
 31
0.0
  0
LINE
  5
378D
  8
0
  6
CONTINUOUS
 62
     7
 10
52.829464634147683
 20
120.5120689529833
 30
0.0
 11
49.829464634147683
 21
120.5120689529833
 31
0.0
  0
CIRCLE
  5
378E
  8
0
  6
CONTINUOUS
 62
     7
 10
139.3091207746678
 20
118.2620689529833
 30
0.0
 40
4.0
  0
CIRCLE
  5
378F
  8
0
  6
CONTINUOUS
 62
     7
 10
139.3091207746678
 20
118.2620689529833
 30
0.0
 40
2.25
  0
ARC
  5
3790
  8
0
  6
CONTINUOUS
 62
     7
 10
139.3091207746678
 20
97.262068952983313
 30
0.0
 40
26.0
 50
81.12886193804934
 51
98.871025718141595
  0
LINE
  5
3792
  8
0
  6
CONTINUOUS
 62
     7
 10
50.329464634147683
 20
123.2620689529833
 30
0.0
 11
49.829464634147683
 21
122.7620689529833
 31
0.0
  0
LINE
  5
3793
  8
0
  6
CONTINUOUS
 62
     7
 10
42.32946463414774
 20
114.2620689529833
 30
0.0
 11
41.82946463414774
 21
113.7620689529833
 31
0.0
  0
LINE
  5
3794
  8
0
  6
CONTINUOUS
 62
     7
 10
41.829464634147683
 20
80.762068952983313
 30
0.0
 11
42.329464634147683
 21
80.262068952983327
 31
0.0
  0
LINE
  5
3795
  8
0
  6
CONTINUOUS
 62
     7
 10
56.329464634147683
 20
123.2620689529833
 30
0.0
 11
56.829464634147691
 21
122.7620689529833
 31
0.0
  0
LINE
  5
3796
  8
0
  6
CONTINUOUS
 62
     7
 10
56.829464634147691
 20
72.028895215365878
 30
0.0
 11
56.329464634147683
 21
71.528895215365878
 31
0.0
  0
LINE
  5
3797
  8
0
  6
CONTINUOUS
 62
     7
 10
49.829464634147683
 20
72.028895215365878
 30
0.0
 11
50.329464634147683
 21
71.528895215365878
 31
0.0
  0
CIRCLE
  5
37A9
  8
0
  6
CONTINUOUS
 62
     7
 10
139.3091207746678
 20
97.262068952983313
 30
0.0
 40
4.5
  0
CIRCLE
  5
37AA
  8
0
  6
CONTINUOUS
 62
     7
 10
139.3091207746678
 20
97.262068952983313
 30
0.0
 40
6.5999999999999988
  0
CIRCLE
  5
37BD
  8
0
  6
DASHED
 62
     3
 10
139.3091207746678
 20
97.18066361570699
 30
0.0
 40
17.0
  0
CIRCLE
  5
37BE
  8
0
  6
CONTINUOUS
 62
     7
 10
139.3091207746678
 20
97.262068952983313
 30
0.0
 40
13.0
  0
CIRCLE
  5
37BF
  8
0
  6
CONTINUOUS
 62
     7
 10
139.3091207746678
 20
97.262068952983313
 30
0.0
 40
13.85
  0
LINE
  5
37C0
  8
0
  6
CONTINUOUS
 62
     7
 10
56.129464634147688
 20
110.2620689529833
 30
0.0
 11
56.129464634147688
 21
84.262068952983327
 31
0.0
  0
LINE
  5
3AF3
  8
0
  6
CONTINUOUS
 62
     3
 10
53.829464634147683
 20
110.2620689529833
 30
0.0
 11
45.829464634147683
 21
102.2620689529833
 31
0.0
  0
LINE
  5
3AF4
  8
0
  6
CONTINUOUS
 62
     3
 10
53.829464634147683
 20
102.2620689529833
 30
0.0
 11
45.829464634147698
 21
110.2620689529833
 31
0.0
  0
LINE
  5
3AF5
  8
0
  6
CONTINUOUS
 62
     3
 10
53.829464634147683
 20
92.262068952983313
 30
0.0
 11
45.829464634147683
 21
84.262068952983327
 31
0.0
  0
LINE
  5
3AF6
  8
0
  6
CONTINUOUS
 62
     3
 10
53.829464634147683
 20
84.262068952983327
 30
0.0
 11
45.829464634147698
 21
92.262068952983313
 31
0.0
  0
INSERT
  5
3BA4
  8
0
  6
CONTINUOUS
 62
     3
  2
*X22
 10
0.0
 20
0.0
 30
0.0
1001
ACAD
1000
HATCH
1002
{
1070
    19
1000
ANSI31
1040
3.0
1040
0.0
1000
R14_HATCH_DATA
1000
3BA4
1011
1.0
1021
-3.4396328043537663E+097
1031
2.2304491959142595E+225
1021
0.0
1031
0.0
1011
0.0
1021
-3.4396328043537663E+097
1031
2.2304491959142595E+225
1021
1.0
1031
0.0
1011
0.0
1021
-3.4396328043537663E+097
1031
2.2304491959142595E+225
1021
0.0
1031
1.0
1040
0.0
1010
0.0
1020
0.0
1030
1.0
1000
ANSI31
1070
     0
1070
     0
1071
        2
1071
        7
1070
     0
1070
     1
1071
        4
1040
55.029464634147658
1040
110.9954820841746
1040
53.829464634147691
1040
110.9954820841746
1040
53.829464634147683
1040
107.9954820841746
1040
55.029464634147679
1040
107.9954820841746
1071
        0
1071
        7
1070
     0
1070
     1
1071
        4
1040
55.029464634147693
1040
86.795482084174608
1040
53.829464634147683
1040
86.795482084174566
1040
53.829464634147683
1040
83.795482084174594
1040
55.029464634147701
1040
83.795482084174594
1071
        0
1070
     0
1070
     1
1040
0.0
1040
3.0
1070
     0
1070
     1
1040
0.7853981633974483
1040
0.0
1040
-93.785211888960134
1040
-0.2651650429449553
1040
0.2651650429449553
1070
     0
1040
0.0498424616483509
1071
        2
1040
54.540255338319177
1040
109.1339156324793
1040
0.0
1040
54.739649777678999
1040
84.960320975494724
1040
0.0
1002
}
  0
LINE
  5
3BFA
  8
CENTER
  6
CENTER
 62
     1
 10
111.6882177037959
 20
97.180663615706948
 30
0.0
 11
170.64717078441419
 21
97.180663615707005
 31
0.0
  0
CIRCLE
  5
3C47
  8
0
  6
DASHED
 62
     3
 10
139.3091207746678
 20
97.18066361570699
 30
0.0
 40
5.0
  0
CIRCLE
  5
3C48
  8
0
 10
139.3091207746678
 20
97.262068952983313
 30
0.0
 40
10.6
  0
CIRCLE
  5
3C49
  8
0
  6
DASHED
 62
     3
 10
139.3091207746678
 20
97.262068952983313
 30
0.0
 40
13.6
  0
ENDSEC
  0
EOF
